<svg version="1.1" id="Layer_1" xmlns="http://www.w3.org/2000/svg" xmlns:xlink="http://www.w3.org/1999/xlink" x="0px" y="0px"
	 width="100%" viewBox="0 0 500 500" enable-background="new 0 0 500 500" xml:space="preserve">
<path fill="#FFFFFF" opacity="1.000000" stroke="none" 
	d="
M291.000000,501.000000 
	C194.000031,501.000000 97.500046,501.000000 1.000052,501.000000 
	C1.000035,334.333405 1.000035,167.666794 1.000017,1.000141 
	C167.666565,1.000094 334.333130,1.000094 500.999756,1.000047 
	C500.999847,167.666519 500.999847,334.333038 500.999939,500.999786 
	C431.166656,501.000000 361.333344,501.000000 291.000000,501.000000 
M331.500000,299.003845 
	C362.600555,299.003845 393.701141,299.003845 424.763550,299.003845 
	C424.763550,266.717255 424.763550,234.980820 424.763550,203.359451 
	C308.608063,203.359451 192.731506,203.359451 76.948570,203.359451 
	C76.948570,235.341049 76.948570,266.959076 76.948570,299.003845 
	C161.589813,299.003845 246.044907,299.003845 331.500000,299.003845 
z"/>
<path fill="#020202" opacity="1.000000" stroke="none" 
	d="
M331.000000,299.003845 
	C246.044907,299.003845 161.589813,299.003845 76.948570,299.003845 
	C76.948570,266.959076 76.948570,235.341049 76.948570,203.359451 
	C192.731506,203.359451 308.608063,203.359451 424.763550,203.359451 
	C424.763550,234.980820 424.763550,266.717255 424.763550,299.003845 
	C393.701141,299.003845 362.600555,299.003845 331.000000,299.003845 
M422.144684,226.500168 
	C422.144684,219.746170 422.144684,212.992188 422.144684,206.310760 
	C307.545685,206.310760 193.537033,206.310760 79.547760,206.310760 
	C79.547760,236.342712 79.547760,266.062134 79.547760,295.707031 
	C193.897934,295.707031 307.927643,295.707031 422.144684,295.707031 
	C422.144684,272.776031 422.144684,250.138107 422.144684,226.500168 
z"/>
<path fill="#FDFDFD" opacity="1.000000" stroke="none" 
	d="
M422.144684,227.000168 
	C422.144684,250.138107 422.144684,272.776031 422.144684,295.707031 
	C307.927643,295.707031 193.897934,295.707031 79.547760,295.707031 
	C79.547760,266.062134 79.547760,236.342712 79.547760,206.310760 
	C193.537033,206.310760 307.545685,206.310760 422.144684,206.310760 
	C422.144684,212.992188 422.144684,219.746170 422.144684,227.000168 
M132.500000,212.001602 
	C117.075302,212.001602 101.650604,212.001602 86.271690,212.001602 
	C86.271690,238.293091 86.271690,264.021881 86.271690,289.739563 
	C141.114334,289.739563 195.683151,289.739563 250.151672,289.739563 
	C250.151672,263.751221 250.151672,238.022598 250.151672,212.001602 
	C211.080856,212.001602 172.290436,212.001602 132.500000,212.001602 
M381.863525,261.212585 
	C381.863525,257.860168 381.863525,254.507751 381.863525,249.824677 
	C384.869507,253.866608 387.165710,256.502472 388.937988,259.453033 
	C391.086853,263.030457 393.934235,263.725311 397.739258,262.624084 
	C397.739258,254.122604 397.739258,245.706375 397.739258,237.065613 
	C395.298431,237.065613 393.054657,237.065613 390.313690,237.065613 
	C390.313690,239.198639 390.313690,241.152481 390.313690,243.106323 
	C390.313690,244.927628 390.313690,246.748932 390.313690,249.680420 
	C379.717957,236.321823 379.717957,236.321823 374.442200,237.541061 
	C374.442200,245.954315 374.442200,254.358643 374.442200,263.398071 
	C377.141907,262.935272 379.473450,262.535583 381.863525,261.212585 
M321.672089,250.365051 
	C322.641754,243.172302 326.198151,241.515884 332.622253,244.630936 
	C334.992981,245.780472 338.039917,245.535553 341.281769,245.998520 
	C337.985779,237.682785 330.775208,234.482880 322.987335,237.007492 
	C316.527618,239.101532 312.733551,246.067978 314.284760,252.986481 
	C315.944366,260.388214 322.493744,264.499390 330.628174,263.245544 
	C338.175720,262.082153 342.276794,256.489075 341.589630,248.169678 
	C336.697876,248.169678 331.802307,248.169678 326.738678,248.169678 
	C326.825500,249.933044 326.896240,251.369751 326.968201,252.830704 
	C329.266815,253.037689 331.244812,253.215790 333.688080,253.435776 
	C328.451447,258.651154 324.032135,257.560425 321.672089,250.365051 
M302.238159,236.996155 
	C293.693115,235.081741 286.873138,237.830261 284.124329,244.296188 
	C281.207428,251.157532 284.038940,258.969574 290.564972,262.065643 
	C297.836029,265.515167 306.674011,262.891174 310.041321,256.283112 
	C313.727753,249.048904 310.922791,241.446991 302.238159,236.996155 
M344.134827,261.049347 
	C345.589233,263.855316 350.069794,263.868164 352.165314,261.072388 
	C353.633453,259.113617 360.924408,258.062866 361.781555,260.024933 
	C363.949646,264.987762 367.634247,262.382416 371.273041,262.904968 
	C368.119080,254.836945 365.010010,247.375870 362.329865,239.763763 
	C361.377136,237.057846 359.836151,236.843323 357.499115,236.788742 
	C354.953247,236.729279 353.267731,237.082489 352.278931,239.915344 
	C349.884338,246.776093 347.103821,253.502151 344.134827,261.049347 
M271.537506,248.147095 
	C271.482361,255.173035 271.482361,255.173035 264.272644,256.582336 
	C264.272644,258.683868 264.272644,260.758362 264.272644,262.945312 
	C266.380280,262.945312 268.205231,263.074158 270.006165,262.920990 
	C275.286652,262.471924 278.632477,259.555298 278.891022,254.565323 
	C279.189636,248.801697 278.960449,243.010727 278.960449,237.109024 
	C276.364166,237.109024 274.127075,237.109024 271.537476,237.109024 
	C271.537476,240.639542 271.537476,243.929184 271.537506,248.147095 
M411.047729,245.530640 
	C411.047729,242.760925 411.047729,239.991211 411.047729,237.105957 
	C408.368256,237.105957 406.139313,237.105957 403.871674,237.105957 
	C403.871674,245.824356 403.871674,254.298019 403.871674,262.687134 
	C406.437256,262.687134 408.659760,262.687134 411.047729,262.687134 
	C411.047729,257.093231 411.047729,251.808731 411.047729,245.530640 
z"/>
<path fill="#020202" opacity="1.000000" stroke="none" 
	d="
M133.000000,212.001602 
	C172.290436,212.001602 211.080856,212.001602 250.151672,212.001602 
	C250.151672,238.022598 250.151672,263.751221 250.151672,289.739563 
	C195.683151,289.739563 141.114334,289.739563 86.271690,289.739563 
	C86.271690,264.021881 86.271690,238.293091 86.271690,212.001602 
	C101.650604,212.001602 117.075302,212.001602 133.000000,212.001602 
M153.309647,259.111450 
	C156.784958,263.949036 161.803772,264.368774 166.687973,262.695923 
	C168.861008,261.951660 171.417542,258.982117 171.628922,256.811157 
	C171.833786,254.707428 169.682114,251.818634 167.771912,250.226929 
	C166.001663,248.751816 162.965698,248.898315 160.888916,247.657928 
	C159.017899,246.540466 157.691635,244.510895 156.125107,242.883606 
	C158.308838,241.821289 160.451157,240.061203 162.690063,239.928238 
	C164.336609,239.830490 166.110977,241.859726 167.825623,242.945511 
	C168.776215,243.547485 169.721161,244.158417 171.332901,245.190781 
	C171.160278,239.592728 168.613098,237.440964 164.621704,236.617508 
	C160.478943,235.762863 156.573517,236.191849 153.773956,239.718857 
	C151.415634,242.689957 152.407288,247.161438 155.928146,249.098984 
	C158.215912,250.357956 160.829880,251.047226 163.333633,251.884247 
	C165.897797,252.741470 169.244019,253.618073 167.940521,256.902588 
	C167.290649,258.540131 163.841507,259.835358 161.646133,259.854492 
	C159.797318,259.870605 157.933548,257.812683 156.070496,256.682617 
	C154.968567,256.014252 153.855179,255.364761 151.700897,254.085709 
	C152.423157,256.537415 152.702408,257.485291 153.309647,259.111450 
M190.393616,236.858368 
	C189.511963,237.384918 188.151367,237.705368 187.822449,238.469757 
	C184.387405,246.452408 181.117874,254.506287 177.458405,263.374268 
	C179.358734,262.850067 181.181107,262.723022 181.267426,262.267151 
	C182.546219,255.515076 187.737167,257.349518 192.089828,256.983643 
	C195.247192,256.718201 196.926590,257.761719 197.983322,260.755249 
	C198.385254,261.893829 200.101761,262.568390 201.219131,263.454437 
	C201.561859,263.096405 201.904602,262.738403 202.247345,262.380371 
	C198.555420,253.925171 194.863495,245.469971 190.393616,236.858368 
M103.705460,262.966400 
	C113.254257,264.102234 117.054100,260.827301 117.183083,251.283813 
	C117.237122,247.285400 117.281319,243.282028 117.118950,239.289490 
	C117.085449,238.465759 116.114571,237.680115 115.575729,236.876923 
	C115.046288,237.678589 114.089493,238.464111 114.058464,239.284622 
	C113.888535,243.777573 114.096184,248.286407 113.878326,252.775436 
	C113.697266,256.506348 112.486664,259.693329 107.967834,260.079254 
	C103.760986,260.438538 101.079918,258.586700 100.696999,254.395233 
	C100.274162,249.766907 100.441650,245.087173 100.146515,240.442902 
	C100.069695,239.233963 99.227318,238.073669 98.736565,236.891037 
	C98.154716,238.136841 97.139450,239.359467 97.071419,240.632736 
	C96.858376,244.620117 96.959686,248.627228 97.019722,252.625504 
	C97.087006,257.106354 98.673019,260.742706 103.705460,262.966400 
M212.727432,243.692139 
	C210.956039,241.435654 211.991333,236.534683 206.429596,236.975159 
	C209.762527,245.367584 212.831543,253.221451 216.047882,261.014526 
	C216.399521,261.866516 217.523865,262.710938 218.432114,262.910248 
	C219.017319,263.038605 220.245331,262.137543 220.532791,261.432007 
	C223.798431,253.417191 226.938110,245.351044 230.111496,237.298645 
	C229.579178,237.027206 229.046860,236.755783 228.514526,236.484344 
	C222.609619,241.810654 222.701233,250.623840 218.093491,257.349274 
	C216.252014,252.697647 214.614258,248.560638 212.727432,243.692139 
M136.979706,254.447327 
	C136.979706,249.677155 136.979706,244.906967 136.979706,239.976334 
	C139.544357,239.976334 141.549469,240.142776 143.503143,239.898224 
	C144.338562,239.793655 145.066757,238.832504 145.843658,238.260574 
	C145.132401,237.795715 144.428818,236.941849 143.708664,236.927643 
	C138.047058,236.815826 132.381149,236.813202 126.720024,236.936356 
	C126.091156,236.950043 125.484016,237.962372 124.866783,238.511566 
	C125.546875,238.999863 126.194946,239.844742 126.913094,239.909225 
	C129.017288,240.098175 131.149384,239.976456 133.489990,239.976456 
	C133.582870,241.211243 133.693008,242.010284 133.695099,242.809616 
	C133.710434,248.639984 133.625107,254.472610 133.786682,260.298523 
	C133.811951,261.209961 134.929062,262.091064 135.541336,262.986206 
	C136.020493,262.132141 136.791046,261.318115 136.915192,260.415222 
	C137.140015,258.780273 136.979401,257.092316 136.979706,254.447327 
z"/>
<path fill="#0B0B0B" opacity="1.000000" stroke="none" 
	d="
M381.834259,261.674255 
	C379.473450,262.535583 377.141907,262.935272 374.442200,263.398071 
	C374.442200,254.358643 374.442200,245.954315 374.442200,237.541061 
	C379.717957,236.321823 379.717957,236.321823 390.313690,249.680420 
	C390.313690,246.748932 390.313690,244.927628 390.313690,243.106323 
	C390.313690,241.152481 390.313690,239.198639 390.313690,237.065613 
	C393.054657,237.065613 395.298431,237.065613 397.739258,237.065613 
	C397.739258,245.706375 397.739258,254.122604 397.739258,262.624084 
	C393.934235,263.725311 391.086853,263.030457 388.937988,259.453033 
	C387.165710,256.502472 384.869507,253.866608 381.863525,249.824677 
	C381.863525,254.507751 381.863525,257.860168 381.834259,261.674255 
z"/>
<path fill="#0A0A0A" opacity="1.000000" stroke="none" 
	d="
M321.734589,250.778030 
	C324.032135,257.560425 328.451447,258.651154 333.688080,253.435776 
	C331.244812,253.215790 329.266815,253.037689 326.968201,252.830704 
	C326.896240,251.369751 326.825500,249.933044 326.738678,248.169678 
	C331.802307,248.169678 336.697876,248.169678 341.589630,248.169678 
	C342.276794,256.489075 338.175720,262.082153 330.628174,263.245544 
	C322.493744,264.499390 315.944366,260.388214 314.284760,252.986481 
	C312.733551,246.067978 316.527618,239.101532 322.987335,237.007492 
	C330.775208,234.482880 337.985779,237.682785 341.281769,245.998520 
	C338.039917,245.535553 334.992981,245.780472 332.622253,244.630936 
	C326.198151,241.515884 322.641754,243.172302 321.734589,250.778030 
z"/>
<path fill="#0A0A0A" opacity="1.000000" stroke="none" 
	d="
M302.616913,237.092163 
	C310.922791,241.446991 313.727753,249.048904 310.041321,256.283112 
	C306.674011,262.891174 297.836029,265.515167 290.564972,262.065643 
	C284.038940,258.969574 281.207428,251.157532 284.124329,244.296188 
	C286.873138,237.830261 293.693115,235.081741 302.616913,237.092163 
M295.816193,256.202728 
	C298.123260,255.339554 301.034149,255.069763 302.599091,253.477295 
	C305.086731,250.945892 303.898743,246.305923 300.988586,244.379868 
	C297.962708,242.377151 293.746094,243.230621 291.848755,246.229767 
	C289.683502,249.652496 290.844666,253.267654 295.816193,256.202728 
z"/>
<path fill="#060606" opacity="1.000000" stroke="none" 
	d="
M344.306824,260.665924 
	C347.103821,253.502151 349.884338,246.776093 352.278931,239.915344 
	C353.267731,237.082489 354.953247,236.729279 357.499115,236.788742 
	C359.836151,236.843323 361.377136,237.057846 362.329865,239.763763 
	C365.010010,247.375870 368.119080,254.836945 371.273041,262.904968 
	C367.634247,262.382416 363.949646,264.987762 361.781555,260.024933 
	C360.924408,258.062866 353.633453,259.113617 352.165314,261.072388 
	C350.069794,263.868164 345.589233,263.855316 344.306824,260.665924 
M358.132721,247.770615 
	C357.708527,247.614594 356.917603,247.309891 356.912048,247.323624 
	C356.120544,249.275711 355.386108,251.250946 354.548279,253.495178 
	C356.650208,253.495178 358.264923,253.495178 360.191071,253.495178 
	C359.484833,251.521805 358.935944,249.988113 358.132721,247.770615 
z"/>
<path fill="#020202" opacity="1.000000" stroke="none" 
	d="
M271.537476,247.682968 
	C271.537476,243.929184 271.537476,240.639542 271.537476,237.109024 
	C274.127075,237.109024 276.364166,237.109024 278.960449,237.109024 
	C278.960449,243.010727 279.189636,248.801697 278.891022,254.565323 
	C278.632477,259.555298 275.286652,262.471924 270.006165,262.920990 
	C268.205231,263.074158 266.380280,262.945312 264.272644,262.945312 
	C264.272644,260.758362 264.272644,258.683868 264.272644,256.582336 
	C271.482361,255.173035 271.482361,255.173035 271.537476,247.682968 
z"/>
<path fill="#020202" opacity="1.000000" stroke="none" 
	d="
M411.047729,246.027435 
	C411.047729,251.808731 411.047729,257.093231 411.047729,262.687134 
	C408.659760,262.687134 406.437256,262.687134 403.871674,262.687134 
	C403.871674,254.298019 403.871674,245.824356 403.871674,237.105957 
	C406.139313,237.105957 408.368256,237.105957 411.047729,237.105957 
	C411.047729,239.991211 411.047729,242.760925 411.047729,246.027435 
z"/>
<path fill="#EAEAEA" opacity="1.000000" stroke="none" 
	d="
M153.145660,258.772339 
	C152.702408,257.485291 152.423157,256.537415 151.700897,254.085709 
	C153.855179,255.364761 154.968567,256.014252 156.070496,256.682617 
	C157.933548,257.812683 159.797318,259.870605 161.646133,259.854492 
	C163.841507,259.835358 167.290649,258.540131 167.940521,256.902588 
	C169.244019,253.618073 165.897797,252.741470 163.333633,251.884247 
	C160.829880,251.047226 158.215912,250.357956 155.928146,249.098984 
	C152.407288,247.161438 151.415634,242.689957 153.773956,239.718857 
	C156.573517,236.191849 160.478943,235.762863 164.621704,236.617508 
	C168.613098,237.440964 171.160278,239.592728 171.332901,245.190781 
	C169.721161,244.158417 168.776215,243.547485 167.825623,242.945511 
	C166.110977,241.859726 164.336609,239.830490 162.690063,239.928238 
	C160.451157,240.061203 158.308838,241.821289 156.125107,242.883606 
	C157.691635,244.510895 159.017899,246.540466 160.888916,247.657928 
	C162.965698,248.898315 166.001663,248.751816 167.771912,250.226929 
	C169.682114,251.818634 171.833786,254.707428 171.628922,256.811157 
	C171.417542,258.982117 168.861008,261.951660 166.687973,262.695923 
	C161.803772,264.368774 156.784958,263.949036 153.145660,258.772339 
z"/>
<path fill="#F0F0F0" opacity="1.000000" stroke="none" 
	d="
M190.782593,236.936569 
	C194.863495,245.469971 198.555420,253.925171 202.247345,262.380371 
	C201.904602,262.738403 201.561859,263.096405 201.219131,263.454437 
	C200.101761,262.568390 198.385254,261.893829 197.983322,260.755249 
	C196.926590,257.761719 195.247192,256.718201 192.089828,256.983643 
	C187.737167,257.349518 182.546219,255.515076 181.267426,262.267151 
	C181.181107,262.723022 179.358734,262.850067 177.458405,263.374268 
	C181.117874,254.506287 184.387405,246.452408 187.822449,238.469757 
	C188.151367,237.705368 189.511963,237.384918 190.782593,236.936569 
M187.863678,253.990479 
	C190.109039,253.990479 192.354401,253.990479 195.068130,253.990479 
	C193.335526,249.802246 191.853943,246.220795 189.945374,241.607224 
	C188.163086,245.936646 186.767517,249.206970 185.539444,252.539001 
	C185.442078,252.803192 186.506149,253.495422 187.863678,253.990479 
z"/>
<path fill="#F7F7F7" opacity="1.000000" stroke="none" 
	d="
M103.341461,262.860779 
	C98.673019,260.742706 97.087006,257.106354 97.019722,252.625504 
	C96.959686,248.627228 96.858376,244.620117 97.071419,240.632736 
	C97.139450,239.359467 98.154716,238.136841 98.736565,236.891037 
	C99.227318,238.073669 100.069695,239.233963 100.146515,240.442902 
	C100.441650,245.087173 100.274162,249.766907 100.696999,254.395233 
	C101.079918,258.586700 103.760986,260.438538 107.967834,260.079254 
	C112.486664,259.693329 113.697266,256.506348 113.878326,252.775436 
	C114.096184,248.286407 113.888535,243.777573 114.058464,239.284622 
	C114.089493,238.464111 115.046288,237.678589 115.575729,236.876923 
	C116.114571,237.680115 117.085449,238.465759 117.118950,239.289490 
	C117.281319,243.282028 117.237122,247.285400 117.183083,251.283813 
	C117.054100,260.827301 113.254257,264.102234 103.341461,262.860779 
z"/>
<path fill="#EAEAEA" opacity="1.000000" stroke="none" 
	d="
M212.851959,244.057892 
	C214.614258,248.560638 216.252014,252.697647 218.093491,257.349274 
	C222.701233,250.623840 222.609619,241.810654 228.514526,236.484344 
	C229.046860,236.755783 229.579178,237.027206 230.111496,237.298645 
	C226.938110,245.351044 223.798431,253.417191 220.532791,261.432007 
	C220.245331,262.137543 219.017319,263.038605 218.432114,262.910248 
	C217.523865,262.710938 216.399521,261.866516 216.047882,261.014526 
	C212.831543,253.221451 209.762527,245.367584 206.429596,236.975159 
	C211.991333,236.534683 210.956039,241.435654 212.851959,244.057892 
z"/>
<path fill="#F7F7F7" opacity="1.000000" stroke="none" 
	d="
M136.979706,254.936905 
	C136.979401,257.092316 137.140015,258.780273 136.915192,260.415222 
	C136.791046,261.318115 136.020493,262.132141 135.541321,262.986206 
	C134.929062,262.091064 133.811951,261.209961 133.786682,260.298523 
	C133.625107,254.472610 133.710434,248.639984 133.695099,242.809616 
	C133.693008,242.010284 133.582870,241.211243 133.489990,239.976456 
	C131.149384,239.976456 129.017288,240.098175 126.913094,239.909225 
	C126.194946,239.844742 125.546875,238.999863 124.866791,238.511566 
	C125.484016,237.962372 126.091156,236.950043 126.720024,236.936356 
	C132.381149,236.813202 138.047058,236.815826 143.708664,236.927643 
	C144.428818,236.941849 145.132401,237.795715 145.843658,238.260590 
	C145.066757,238.832504 144.338562,239.793655 143.503143,239.898224 
	C141.549469,240.142776 139.544357,239.976334 136.979706,239.976334 
	C136.979706,244.906967 136.979706,249.677155 136.979706,254.936905 
z"/>
<path fill="#F7F7F7" opacity="1.000000" stroke="none" 
	d="
M295.408630,256.123230 
	C290.844666,253.267654 289.683502,249.652496 291.848755,246.229767 
	C293.746094,243.230621 297.962708,242.377151 300.988586,244.379868 
	C303.898743,246.305923 305.086731,250.945892 302.599091,253.477295 
	C301.034149,255.069763 298.123260,255.339554 295.408630,256.123230 
z"/>
<path fill="#EAEAEA" opacity="1.000000" stroke="none" 
	d="
M358.259888,248.112518 
	C358.935944,249.988113 359.484833,251.521805 360.191071,253.495178 
	C358.264923,253.495178 356.650208,253.495178 354.548279,253.495178 
	C355.386108,251.250946 356.120544,249.275711 356.912048,247.323624 
	C356.917603,247.309891 357.708527,247.614594 358.259888,248.112518 
z"/>
<path fill="#0B0B0B" opacity="1.000000" stroke="none" 
	d="
M187.447083,253.989594 
	C186.506149,253.495422 185.442078,252.803192 185.539444,252.539001 
	C186.767517,249.206970 188.163086,245.936646 189.945374,241.607224 
	C191.853943,246.220795 193.335526,249.802246 195.068130,253.990479 
	C192.354401,253.990479 190.109039,253.990479 187.447083,253.989594 
z"/>
</svg>